<svg width="49" height="50" viewBox="0 0 49 50" fill="none" xmlns="http://www.w3.org/2000/svg">
<mask id="mask0_453_2718" style="mask-type:luminance" maskUnits="userSpaceOnUse" x="0" y="0" width="49" height="50">
<path d="M49 0.276123H0V49.2761H49V0.276123Z" fill="white"/>
</mask>
<g mask="url(#mask0_453_2718)">
<path d="M47.4688 1.80737H1.53125V47.7449H47.4688V1.80737Z" stroke="#1C373C" stroke-width="3"/>
<path d="M14.5337 20.6503C12.6606 20.6503 11.5557 19.451 11.5557 17.4567V14.088C11.5557 12.0937 12.6606 10.8944 14.5337 10.8944C16.3932 10.8944 17.4982 12.0937 17.4982 14.088V17.4567C17.4982 19.451 16.3932 20.6503 14.5337 20.6503ZM14.5337 19.0468C15.3691 19.0468 15.7868 18.4808 15.7868 17.4567V14.088C15.7868 13.0639 15.3691 12.4979 14.5337 12.4979C13.6982 12.4979 13.267 13.0639 13.267 14.088V17.4567C13.267 18.4808 13.6982 19.0468 14.5337 19.0468ZM23.2008 20.4886L21.22 16.6482L20.6406 17.5511V20.4886H19.0101V11.0561H20.6406V14.9234L21.1931 13.8185L22.7696 11.0561H24.6831L22.1498 15.166L25.0873 20.4886H23.2008ZM27.5366 18.9255H30.7571V20.4886H25.8792V11.0561H30.6224V12.6192H27.5366V14.9504H30.3664V16.4596H27.5366V18.9255ZM33.5309 20.4886V17.5511L31.2671 11.0561H32.9919L33.8947 13.9128C34.016 14.2632 34.2181 14.9504 34.3394 15.4085H34.3798C34.5011 14.9504 34.7032 14.2632 34.8245 13.8859L35.7138 11.0561H37.4387L35.1883 17.5511V20.4886H33.5309ZM16.1034 29.1567H13.2063V31.5148H15.8474V33.0375H13.2063V37.0261H11.5488V27.5936H16.1034V29.1567ZM20.021 37.1878C18.148 37.1878 17.0431 35.9885 17.0431 33.9942V30.6255C17.0431 28.6312 18.148 27.4319 20.021 27.4319C21.8806 27.4319 22.9855 28.6312 22.9855 30.6255V33.9942C22.9855 35.9885 21.8806 37.1878 20.021 37.1878ZM20.021 35.5843C20.8565 35.5843 21.2742 35.0183 21.2742 33.9942V30.6255C21.2742 29.6014 20.8565 29.0354 20.021 29.0354C19.1856 29.0354 18.7544 29.6014 18.7544 30.6255V33.9942C18.7544 35.0183 19.1856 35.5843 20.021 35.5843ZM27.2059 37.1878C25.3329 37.1878 24.2279 35.9885 24.2279 33.9942V30.6255C24.2279 28.6312 25.3329 27.4319 27.2059 27.4319C29.0655 27.4319 30.1704 28.6312 30.1704 30.6255V33.9942C30.1704 35.9885 29.0655 37.1878 27.2059 37.1878ZM27.2059 35.5843C28.0414 35.5843 28.4591 35.0183 28.4591 33.9942V30.6255C28.4591 29.6014 28.0414 29.0354 27.2059 29.0354C26.3705 29.0354 25.9393 29.6014 25.9393 30.6255V33.9942C25.9393 35.0183 26.3705 35.5843 27.2059 35.5843ZM31.6824 37.0261V27.5936H34.1483C36.0213 27.5936 37.1128 28.712 37.1128 30.639V33.9403C37.1128 35.8807 36.0213 37.0261 34.1752 37.0261H31.6824ZM33.3398 35.4495H34.1752C34.9972 35.4495 35.4419 34.924 35.4419 33.9269V30.639C35.4419 29.6688 34.9972 29.1702 34.1752 29.1702H33.3398V35.4495Z" fill="#1C373C"/>
</g>
</svg>
