<svg width="48" height="48" viewBox="0 0 48 48" fill="none" xmlns="http://www.w3.org/2000/svg">
<g clip-path="url(#clip0_744_1525)">
<mask id="mask0_744_1525" style="mask-type:luminance" maskUnits="userSpaceOnUse" x="0" y="0" width="48" height="48">
<path d="M48 0H0V48H48V0Z" fill="white"/>
</mask>
<g mask="url(#mask0_744_1525)">
<path d="M46.5 1.5H1.5V46.5H46.5V1.5Z" stroke="#1C373C" stroke-width="3"/>
<path d="M14.2372 19.9584C12.4024 19.9584 11.32 18.7836 11.32 16.83V13.53C11.32 11.5764 12.4024 10.4016 14.2372 10.4016C16.0588 10.4016 17.1412 11.5764 17.1412 13.53V16.83C17.1412 18.7836 16.0588 19.9584 14.2372 19.9584ZM14.2372 18.3876C15.0556 18.3876 15.4648 17.8332 15.4648 16.83V13.53C15.4648 12.5268 15.0556 11.9724 14.2372 11.9724C13.4188 11.9724 12.9964 12.5268 12.9964 13.53V16.83C12.9964 17.8332 13.4188 18.3876 14.2372 18.3876ZM22.7275 19.8L20.7871 16.038L20.2195 16.9224V19.8H18.6223V10.56H20.2195V14.3484L20.7607 13.266L22.3051 10.56H24.1795L21.6979 14.586L24.5755 19.8H22.7275ZM26.9747 18.2688H30.1295V19.8H25.3511V10.56H29.9975V12.0912H26.9747V14.3748H29.7467V15.8532H26.9747V18.2688ZM32.8467 19.8V16.9224L30.6291 10.56H32.3187L33.2031 13.3584C33.3219 13.7016 33.5199 14.3748 33.6387 14.8236H33.6783C33.7971 14.3748 33.9951 13.7016 34.1139 13.332L34.9851 10.56H36.6747L34.4703 16.9224V19.8H32.8467ZM15.7748 28.2912H12.9368V30.6012H15.524V32.0928H12.9368V36H11.3132V26.76H15.7748V28.2912ZM19.6126 36.1584C17.7778 36.1584 16.6954 34.9836 16.6954 33.03V29.73C16.6954 27.7764 17.7778 26.6016 19.6126 26.6016C21.4342 26.6016 22.5166 27.7764 22.5166 29.73V33.03C22.5166 34.9836 21.4342 36.1584 19.6126 36.1584ZM19.6126 34.5876C20.431 34.5876 20.8402 34.0332 20.8402 33.03V29.73C20.8402 28.7268 20.431 28.1724 19.6126 28.1724C18.7942 28.1724 18.3718 28.7268 18.3718 29.73V33.03C18.3718 34.0332 18.7942 34.5876 19.6126 34.5876ZM26.6508 36.1584C24.816 36.1584 23.7336 34.9836 23.7336 33.03V29.73C23.7336 27.7764 24.816 26.6016 26.6508 26.6016C28.4724 26.6016 29.5548 27.7764 29.5548 29.73V33.03C29.5548 34.9836 28.4724 36.1584 26.6508 36.1584ZM26.6508 34.5876C27.4692 34.5876 27.8784 34.0332 27.8784 33.03V29.73C27.8784 28.7268 27.4692 28.1724 26.6508 28.1724C25.8324 28.1724 25.41 28.7268 25.41 29.73V33.03C25.41 34.0332 25.8324 34.5876 26.6508 34.5876ZM31.0359 36V26.76H33.4515C35.2863 26.76 36.3555 27.8556 36.3555 29.7432V32.9772C36.3555 34.878 35.2863 36 33.4779 36H31.0359ZM32.6595 34.4556H33.4779C34.2831 34.4556 34.7187 33.9408 34.7187 32.964V29.7432C34.7187 28.7928 34.2831 28.3044 33.4779 28.3044H32.6595V34.4556Z" fill="#1C373C"/>
</g>
</g>
<defs>
<clipPath id="clip0_744_1525">
<rect width="48" height="48" fill="white"/>
</clipPath>
</defs>
</svg>
