<svg width="67" height="67" viewBox="0 0 67 67" fill="none" xmlns="http://www.w3.org/2000/svg">
<rect x="0.744444" y="0.744444" width="65.5111" height="65.5111" stroke="#F9F9F9" stroke-width="1.48889"/>
<path d="M25.5956 23.0859C25.5956 24.242 25.3842 25.236 24.9612 26.0679C24.5382 26.8962 23.9584 27.5342 23.2217 27.9818C22.4885 28.426 21.6549 28.648 20.7208 28.648C19.7832 28.648 18.946 28.426 18.2094 27.9818C17.4762 27.5342 16.8981 26.8944 16.4751 26.0626C16.0522 25.2307 15.8407 24.2385 15.8407 23.0859C15.8407 21.9297 16.0522 20.9375 16.4751 20.1091C16.8981 19.2773 17.4762 18.6393 18.2094 18.1952C18.946 17.7475 19.7832 17.5237 20.7208 17.5237C21.6549 17.5237 22.4885 17.7475 23.2217 18.1952C23.9584 18.6393 24.5382 19.2773 24.9612 20.1091C25.3842 20.9375 25.5956 21.9297 25.5956 23.0859ZM23.9777 23.0859C23.9777 22.2047 23.835 21.4627 23.5495 20.8599C23.2675 20.2537 22.8798 19.7954 22.3863 19.4852C21.8963 19.1715 21.3412 19.0147 20.7208 19.0147C20.0969 19.0147 19.54 19.1715 19.05 19.4852C18.5601 19.7954 18.1723 20.2537 17.8868 20.8599C17.6049 21.4627 17.4639 22.2047 17.4639 23.0859C17.4639 23.9671 17.6049 24.7108 17.8868 25.3171C18.1723 25.9198 18.5601 26.3781 19.05 26.6918C19.54 27.0019 20.0969 27.157 20.7208 27.157C21.3412 27.157 21.8963 27.0019 22.3863 26.6918C22.8798 26.3781 23.2675 25.9198 23.5495 25.3171C23.835 24.7108 23.9777 23.9671 23.9777 23.0859ZM28.9597 25.7453L28.9491 23.8155H29.224L32.4598 20.3788H34.3526L30.6621 24.2914H30.4136L28.9597 25.7453ZM27.5057 28.5V17.6717H29.0865V28.5H27.5057ZM32.6343 28.5L29.7263 24.6403L30.8155 23.5353L34.5747 28.5H32.6343ZM38.9592 28.6639C38.159 28.6639 37.4699 28.493 36.8918 28.151C36.3173 27.8056 35.8732 27.3209 35.5595 26.697C35.2493 26.0696 35.0942 25.3347 35.0942 24.4923C35.0942 23.6604 35.2493 22.9272 35.5595 22.2928C35.8732 21.6583 36.3103 21.1631 36.8707 20.8071C37.4347 20.451 38.0938 20.273 38.8481 20.273C39.3064 20.273 39.7505 20.3488 40.1805 20.5004C40.6105 20.652 40.9965 20.8899 41.3384 21.2142C41.6803 21.5385 41.95 21.9597 42.1474 22.4778C42.3448 22.9925 42.4435 23.6181 42.4435 24.3548V24.9152H35.9877V23.7309H40.8943C40.8943 23.315 40.8097 22.9466 40.6405 22.6259C40.4713 22.3016 40.2334 22.046 39.9267 21.8592C39.6236 21.6724 39.2676 21.579 38.8587 21.579C38.4146 21.579 38.0268 21.6883 37.6955 21.9068C37.3677 22.1218 37.1139 22.4038 36.9341 22.7528C36.7579 23.0982 36.6698 23.4736 36.6698 23.8789V24.8042C36.6698 25.347 36.765 25.8088 36.9553 26.1895C37.1492 26.5702 37.4188 26.861 37.7642 27.0619C38.1097 27.2593 38.5133 27.358 38.975 27.358C39.2746 27.358 39.5478 27.3157 39.7945 27.2311C40.0413 27.1429 40.2545 27.0125 40.4343 26.8398C40.6141 26.6671 40.7515 26.4538 40.8467 26.2L42.343 26.4697C42.2232 26.9103 42.0081 27.2963 41.698 27.6276C41.3913 27.9554 41.0053 28.211 40.54 28.3943C40.0783 28.574 39.5513 28.6639 38.9592 28.6639ZM44.9642 31.5455C44.728 31.5455 44.513 31.5261 44.3191 31.4873C44.1252 31.452 43.9807 31.4133 43.8856 31.371L44.2662 30.0756C44.5553 30.1531 44.8126 30.1866 45.0382 30.1761C45.2638 30.1655 45.4629 30.0809 45.6356 29.9223C45.8119 29.7637 45.967 29.5046 46.1009 29.145L46.2965 28.6057L43.3251 20.3788H45.017L47.0738 26.6812H47.1584L49.2151 20.3788H50.9123L47.5655 29.5839C47.4104 30.0069 47.213 30.3646 46.9733 30.6572C46.7336 30.9533 46.4481 31.1753 46.1168 31.3234C45.7854 31.4714 45.4012 31.5455 44.9642 31.5455ZM16.1896 49.5V38.6717H22.9044V40.0781H17.8234V43.3774H22.4233V44.7785H17.8234V49.5H16.1896ZM27.6114 49.6639C26.85 49.6639 26.1856 49.4894 25.6181 49.1405C25.0506 48.7915 24.61 48.3033 24.2963 47.6759C23.9826 47.0485 23.8257 46.3153 23.8257 45.4764C23.8257 44.634 23.9826 43.8973 24.2963 43.2663C24.61 42.6354 25.0506 42.1454 25.6181 41.7965C26.1856 41.4475 26.85 41.273 27.6114 41.273C28.3728 41.273 29.0372 41.4475 29.6047 41.7965C30.1722 42.1454 30.6128 42.6354 30.9265 43.2663C31.2402 43.8973 31.3971 44.634 31.3971 45.4764C31.3971 46.3153 31.2402 47.0485 30.9265 47.6759C30.6128 48.3033 30.1722 48.7915 29.6047 49.1405C29.0372 49.4894 28.3728 49.6639 27.6114 49.6639ZM27.6167 48.3368C28.1102 48.3368 28.5191 48.2064 28.8433 47.9455C29.1676 47.6847 29.4073 47.3375 29.5624 46.904C29.721 46.4704 29.8003 45.9928 29.8003 45.4711C29.8003 44.953 29.721 44.4771 29.5624 44.0436C29.4073 43.6065 29.1676 43.2558 28.8433 42.9914C28.5191 42.727 28.1102 42.5949 27.6167 42.5949C27.1197 42.5949 26.7073 42.727 26.3795 42.9914C26.0552 43.2558 25.8137 43.6065 25.6551 44.0436C25.5 44.4771 25.4225 44.953 25.4225 45.4711C25.4225 45.9928 25.5 46.4704 25.6551 46.904C25.8137 47.3375 26.0552 47.6847 26.3795 47.9455C26.7073 48.2064 27.1197 48.3368 27.6167 48.3368ZM36.5825 49.6639C35.8212 49.6639 35.1567 49.4894 34.5893 49.1405C34.0218 48.7915 33.5811 48.3033 33.2674 47.6759C32.9537 47.0485 32.7969 46.3153 32.7969 45.4764C32.7969 44.634 32.9537 43.8973 33.2674 43.2663C33.5811 42.6354 34.0218 42.1454 34.5893 41.7965C35.1567 41.4475 35.8212 41.273 36.5825 41.273C37.3439 41.273 38.0083 41.4475 38.5758 41.7965C39.1433 42.1454 39.5839 42.6354 39.8976 43.2663C40.2114 43.8973 40.3682 44.634 40.3682 45.4764C40.3682 46.3153 40.2114 47.0485 39.8976 47.6759C39.5839 48.3033 39.1433 48.7915 38.5758 49.1405C38.0083 49.4894 37.3439 49.6639 36.5825 49.6639ZM36.5878 48.3368C37.0813 48.3368 37.4902 48.2064 37.8145 47.9455C38.1388 47.6847 38.3784 47.3375 38.5335 46.904C38.6922 46.4704 38.7715 45.9928 38.7715 45.4711C38.7715 44.953 38.6922 44.4771 38.5335 44.0436C38.3784 43.6065 38.1388 43.2558 37.8145 42.9914C37.4902 42.727 37.0813 42.5949 36.5878 42.5949C36.0908 42.5949 35.6784 42.727 35.3506 42.9914C35.0263 43.2558 34.7849 43.6065 34.6263 44.0436C34.4712 44.4771 34.3936 44.953 34.3936 45.4711C34.3936 45.9928 34.4712 46.4704 34.6263 46.904C34.7849 47.3375 35.0263 47.6847 35.3506 47.9455C35.6784 48.2064 36.0908 48.3368 36.5878 48.3368ZM45.173 49.6586C44.5174 49.6586 43.9323 49.4912 43.4176 49.1563C42.9065 48.8179 42.5047 48.3368 42.2121 47.7129C41.9231 47.0855 41.7786 46.3329 41.7786 45.4553C41.7786 44.5776 41.9249 43.8268 42.2174 43.2029C42.5135 42.579 42.9189 42.1014 43.4335 41.77C43.9481 41.4387 44.5315 41.273 45.1836 41.273C45.6876 41.273 46.093 41.3576 46.3996 41.5268C46.7098 41.6925 46.9495 41.8864 47.1187 42.1084C47.2914 42.3305 47.4254 42.5261 47.5205 42.6953H47.6157V38.6717H49.1966V49.5H47.6527V48.2363H47.5205C47.4254 48.4091 47.2879 48.6065 47.1081 48.8285C46.9319 49.0506 46.6887 49.2444 46.3785 49.4101C46.0683 49.5758 45.6665 49.6586 45.173 49.6586ZM45.522 48.3104C45.9767 48.3104 46.3609 48.1905 46.6746 47.9508C46.9918 47.7076 47.2315 47.371 47.3936 46.941C47.5593 46.5109 47.6421 46.0104 47.6421 45.4394C47.6421 44.8754 47.5611 44.3819 47.3989 43.959C47.2368 43.536 46.9989 43.2064 46.6852 42.9702C46.3714 42.7341 45.9837 42.616 45.522 42.616C45.0461 42.616 44.6496 42.7394 44.3323 42.9861C44.0151 43.2328 43.7754 43.5695 43.6133 43.996C43.4546 44.4225 43.3753 44.9036 43.3753 45.4394C43.3753 45.9822 43.4564 46.4704 43.6185 46.904C43.7807 47.3375 44.0204 47.6812 44.3376 47.935C44.6584 48.1852 45.0532 48.3104 45.522 48.3104Z" fill="#F9F9F9"/>
</svg>
