<svg width="536" height="536" viewBox="0 0 536 536" fill="none" xmlns="http://www.w3.org/2000/svg">
<path fill-rule="evenodd" clip-rule="evenodd" d="M0 0C0 148.012 119.988 268 268 268C119.988 268 0 387.989 0 536H32.16C32.16 405.749 137.749 300.16 268 300.16C398.251 300.16 503.84 405.749 503.84 536H536C536 387.989 416.011 268 268 268C416.011 268 536 148.012 536 0H503.84C503.84 130.251 398.251 235.84 268 235.84C137.749 235.84 32.16 130.251 32.16 0H0ZM64.32 0C64.32 112.489 155.511 203.68 268 203.68C380.49 203.68 471.68 112.489 471.68 0H439.52C439.52 94.7278 362.727 171.52 268 171.52C173.272 171.52 96.48 94.7278 96.48 0H64.32ZM128.64 0C128.64 76.9664 191.034 139.36 268 139.36C344.967 139.36 407.36 76.9664 407.36 0H375.2C375.2 59.205 327.204 107.2 268 107.2C208.795 107.2 160.8 59.205 160.8 0H128.64ZM268 332.32C380.49 332.32 471.68 423.51 471.68 536H439.52C439.52 441.273 362.727 364.48 268 364.48C173.272 364.48 96.48 441.273 96.48 536H64.32C64.32 423.51 155.511 332.32 268 332.32ZM268 396.64C344.967 396.64 407.36 459.033 407.36 536H375.2C375.2 476.796 327.204 428.8 268 428.8C208.795 428.8 160.8 476.796 160.8 536H128.64C128.64 459.033 191.034 396.64 268 396.64Z" fill="#F6F6F6" fill-opacity="0.15"/>
</svg>
