<svg width="44" height="44" viewBox="0 0 44 44" fill="none" xmlns="http://www.w3.org/2000/svg">
<path d="M22 24.7388V42.6138" stroke="#D0ED1C" stroke-linecap="round" stroke-linejoin="round"/>
<path d="M8.25 28.8638C10.0557 28.8638 11.8437 29.2194 13.5119 29.9104C15.1801 30.6014 16.6959 31.6142 17.9727 32.891C19.2495 34.1679 20.2623 35.6836 20.9533 37.3519C21.6443 39.0201 22 40.8081 22 42.6138C18.3533 42.6138 14.8559 41.1651 12.2773 38.5865C9.69866 36.0079 8.25 32.5105 8.25 28.8638Z" stroke="#D0ED1C" stroke-linecap="round" stroke-linejoin="round"/>
<path d="M35.75 28.8638C32.1033 28.8638 28.6059 30.3124 26.0273 32.891C23.4487 35.4697 22 38.967 22 42.6138C25.6467 42.6138 29.1441 41.1651 31.7227 38.5865C34.3013 36.0079 35.75 32.5105 35.75 28.8638Z" stroke="#D0ED1C" stroke-linecap="round" stroke-linejoin="round"/>
<path d="M8.25 10.9892V4.281C8.25052 3.98997 8.34337 3.70662 8.51519 3.47172C8.687 3.23682 8.92891 3.06249 9.20611 2.97383C9.4833 2.88517 9.78148 2.88675 10.0577 2.97833C10.334 3.06992 10.574 3.2468 10.7433 3.4835L16.5 9.61417L20.8065 2.07917C20.9271 1.86973 21.1007 1.69576 21.3099 1.57479C21.5191 1.45383 21.7565 1.39014 21.9982 1.39014C22.2398 1.39014 22.4772 1.45383 22.6864 1.57479C22.8956 1.69576 23.0693 1.86973 23.1898 2.07917L27.5 9.61417L33.2567 3.4835C33.4261 3.24667 33.6663 3.06974 33.9427 2.97819C34.2191 2.88665 34.5175 2.88522 34.7948 2.97411C35.0721 3.06301 35.314 3.23763 35.4856 3.47283C35.6573 3.70803 35.7499 3.99165 35.75 4.28283V10.9892C35.75 14.6359 34.3013 18.1333 31.7227 20.7119C29.1441 23.2905 25.6467 24.7392 22 24.7392C18.3533 24.7392 14.8559 23.2905 12.2773 20.7119C9.69866 18.1333 8.25 14.6359 8.25 10.9892Z" stroke="#D0ED1C" stroke-linecap="round" stroke-linejoin="round"/>
</svg>
