<svg width="44" height="44" viewBox="0 0 44 44" fill="none" xmlns="http://www.w3.org/2000/svg">
<g clip-path="url(#clip0_577_1446)">
<path d="M8.25 33H6.875C5.41631 33 4.01736 32.4205 2.98591 31.3891C1.95446 30.3576 1.375 28.9587 1.375 27.5V22C1.375 20.5413 1.95446 19.1424 2.98591 18.1109C4.01736 17.0795 5.41631 16.5 6.875 16.5H8.25C8.61467 16.5 8.96441 16.6449 9.22227 16.9027C9.48013 17.1606 9.625 17.5103 9.625 17.875V31.625C9.625 31.9897 9.48013 32.3394 9.22227 32.5973C8.96441 32.8551 8.61467 33 8.25 33Z" stroke="#D0ED1C" stroke-linecap="round" stroke-linejoin="round"/>
<path d="M37.125 33H35.75C35.3853 33 35.0356 32.8551 34.7777 32.5973C34.5199 32.3394 34.375 31.9897 34.375 31.625V17.875C34.375 17.5103 34.5199 17.1606 34.7777 16.9027C35.0356 16.6449 35.3853 16.5 35.75 16.5H37.125C38.5837 16.5 39.9826 17.0795 41.0141 18.1109C42.0455 19.1424 42.625 20.5413 42.625 22V27.5C42.625 28.9587 42.0455 30.3576 41.0141 31.3891C39.9826 32.4205 38.5837 33 37.125 33Z" stroke="#D0ED1C" stroke-linecap="round" stroke-linejoin="round"/>
<path d="M6.875 16.5C6.875 12.4886 8.46852 8.6415 11.305 5.80501C14.1415 2.96852 17.9886 1.375 22 1.375C26.0114 1.375 29.8585 2.96852 32.695 5.80501C35.5315 8.6415 37.125 12.4886 37.125 16.5" stroke="#D0ED1C" stroke-linecap="round" stroke-linejoin="round"/>
<path d="M27.5 39.875H31.625C33.0837 39.875 34.4826 39.2955 35.5141 38.2641C36.5455 37.2326 37.125 35.8337 37.125 34.375V33" stroke="#D0ED1C" stroke-linecap="round" stroke-linejoin="round"/>
<path d="M24.75 42.625H22C21.2707 42.625 20.5712 42.3353 20.0555 41.8195C19.5397 41.3038 19.25 40.6043 19.25 39.875C19.25 39.1457 19.5397 38.4462 20.0555 37.9305C20.5712 37.4147 21.2707 37.125 22 37.125H24.75C25.4793 37.125 26.1788 37.4147 26.6945 37.9305C27.2103 38.4462 27.5 39.1457 27.5 39.875C27.5 40.6043 27.2103 41.3038 26.6945 41.8195C26.1788 42.3353 25.4793 42.625 24.75 42.625Z" stroke="#D0ED1C" stroke-linecap="round" stroke-linejoin="round"/>
<path d="M16.5 28.3105C18.0039 29.681 19.9653 30.4406 22 30.4406C24.0347 30.4406 25.9961 29.681 27.5 28.3105" stroke="#D0ED1C" stroke-linecap="round" stroke-linejoin="round"/>
<path d="M16.5 18.3057V20.711" stroke="#D0ED1C" stroke-linecap="round" stroke-linejoin="round"/>
<path d="M27.5 18.3057V20.711" stroke="#D0ED1C" stroke-linecap="round" stroke-linejoin="round"/>
</g>
<defs>
<clipPath id="clip0_577_1446">
<rect width="44" height="44" fill="white"/>
</clipPath>
</defs>
</svg>
