<svg width="44" height="44" viewBox="0 0 44 44" fill="none" xmlns="http://www.w3.org/2000/svg">
<path d="M21.9999 25.6665H23.8332C25.8499 25.6665 27.4999 24.0165 27.4999 21.9998V3.6665H10.9999C8.24988 3.6665 5.84823 5.18815 4.60156 7.42481" stroke="#D0ED1C" stroke-linecap="round" stroke-linejoin="round"/>
<path d="M3.6665 31.1665C3.6665 34.2098 6.12317 36.6665 9.1665 36.6665H10.9998C10.9998 34.6498 12.6498 32.9998 14.6665 32.9998C16.6832 32.9998 18.3332 34.6498 18.3332 36.6665H25.6665C25.6665 34.6498 27.3165 32.9998 29.3332 32.9998C31.3498 32.9998 32.9998 34.6498 32.9998 36.6665H34.8332C37.8765 36.6665 40.3332 34.2098 40.3332 31.1665V25.6665H34.8332C33.8248 25.6665 32.9998 24.8415 32.9998 23.8332V18.3332C32.9998 17.3248 33.8248 16.4998 34.8332 16.4998H37.1981L34.0632 11.0182C33.4032 9.88152 32.1932 9.1665 30.8732 9.1665H27.4998V21.9998C27.4998 24.0165 25.8498 25.6665 23.8332 25.6665H21.9998" stroke="#D0ED1C" stroke-linecap="round" stroke-linejoin="round"/>
<path d="M14.6667 40.3333C16.6917 40.3333 18.3333 38.6917 18.3333 36.6667C18.3333 34.6416 16.6917 33 14.6667 33C12.6416 33 11 34.6416 11 36.6667C11 38.6917 12.6416 40.3333 14.6667 40.3333Z" stroke="#D0ED1C" stroke-linecap="round" stroke-linejoin="round"/>
<path d="M29.3332 40.3333C31.3582 40.3333 32.9998 38.6917 32.9998 36.6667C32.9998 34.6416 31.3582 33 29.3332 33C27.3081 33 25.6665 34.6416 25.6665 36.6667C25.6665 38.6917 27.3081 40.3333 29.3332 40.3333Z" stroke="#D0ED1C" stroke-linecap="round" stroke-linejoin="round"/>
<path d="M40.3333 22V25.6667H34.8333C33.825 25.6667 33 24.8417 33 23.8333V18.3333C33 17.325 33.825 16.5 34.8333 16.5H37.1983L40.3333 22Z" stroke="#D0ED1C" stroke-linecap="round" stroke-linejoin="round"/>
<path d="M3.6665 14.6665H14.6665" stroke="#D0ED1C" stroke-linecap="round" stroke-linejoin="round"/>
<path d="M3.6665 20.1665H10.9998" stroke="#D0ED1C" stroke-linecap="round" stroke-linejoin="round"/>
<path d="M3.6665 25.6665H7.33317" stroke="#D0ED1C" stroke-linecap="round" stroke-linejoin="round"/>
</svg>
