<svg width="44" height="44" viewBox="0 0 44 44" fill="none" xmlns="http://www.w3.org/2000/svg">
<g clip-path="url(#clip0_577_511)">
<path d="M1.375 22C1.375 27.4701 3.54798 32.7161 7.41592 36.5841C11.2839 40.452 16.5299 42.625 22 42.625C27.4701 42.625 32.7161 40.452 36.5841 36.5841C40.452 32.7161 42.625 27.4701 42.625 22C42.625 16.5299 40.452 11.2839 36.5841 7.41592C32.7161 3.54798 27.4701 1.375 22 1.375C16.5299 1.375 11.2839 3.54798 7.41592 7.41592C3.54798 11.2839 1.375 16.5299 1.375 22Z" stroke="#D0ED1C" stroke-linecap="round" stroke-linejoin="round"/>
<path d="M26.125 34.375V9.625C29.6169 14.4258 31.5381 20.1893 31.625 26.125H26.125" stroke="#D0ED1C" stroke-linecap="round" stroke-linejoin="round"/>
<path d="M17.875 17.875V34.375" stroke="#D0ED1C" stroke-linecap="round" stroke-linejoin="round"/>
<path d="M20.625 9.625V15.125C20.625 15.8543 20.3353 16.5538 19.8195 17.0695C19.3038 17.5853 18.6043 17.875 17.875 17.875C17.1457 17.875 16.4462 17.5853 15.9305 17.0695C15.4147 16.5538 15.125 15.8543 15.125 15.125V9.625" stroke="#D0ED1C" stroke-linecap="round" stroke-linejoin="round"/>
</g>
<defs>
<clipPath id="clip0_577_511">
<rect width="44" height="44" fill="white"/>
</clipPath>
</defs>
</svg>
